HIERARCHY
ROOT hip
{
	OFFSET 0.000000 0.000000 0.000000 
	CHANNELS 6 Xposition Yposition Zposition Xrotation Zrotation Yrotation
	JOINT abdomen
	{
		OFFSET 0.000000 3.402643 0.000000 
		CHANNELS 3 Xrotation Zrotation Yrotation
		JOINT chest
		{
			OFFSET 0.000000 8.438565 -0.680529 
			CHANNELS 3 Xrotation Zrotation Yrotation
			JOINT neck
			{
				OFFSET 0.000000 10.207942 -0.272212 
				CHANNELS 3 Xrotation Zrotation Yrotation
				JOINT head
				{
					OFFSET 0.000000 3.130431 0.000000 
					CHANNELS 3 Xrotation Zrotation Yrotation
					End Site
					{
						OFFSET 0.000000 3.130435 0.000000 
					}
				}
			}
			JOINT lCollar
			{
				OFFSET 3.470700 6.669187 -0.816635 
				CHANNELS 3 Yrotation Zrotation Xrotation
				JOINT lShldr
				{
					OFFSET 3.198488 0.000000 0.000000 
					CHANNELS 3 Zrotation Yrotation Xrotation
					JOINT lForeArm
					{
						OFFSET 10.139888 0.000000 0.000000 
						CHANNELS 3 Yrotation Zrotation Xrotation
						JOINT lHand
						{
							OFFSET 8.370511 0.000000 0.000000 
							CHANNELS 3 Zrotation Yrotation Xrotation
							End Site
							{
								OFFSET 4.083176 0.000000 0.000000 
							}
						}
					}
				}
			}
			JOINT rCollar
			{
				OFFSET -3.470700 6.669187 -0.816635 
				CHANNELS 3 Yrotation Zrotation Xrotation
				JOINT rShldr
				{
					OFFSET -3.198488 0.000000 0.000000 
					CHANNELS 3 Zrotation Yrotation Xrotation
					JOINT rForeArm
					{
						OFFSET -10.139888 0.000000 0.000000 
						CHANNELS 3 Yrotation Zrotation Xrotation
						JOINT rHand
						{
							OFFSET -8.370511 0.000000 0.000000 
							CHANNELS 3 Zrotation Yrotation Xrotation
							End Site
							{
								OFFSET -4.083176 0.000000 0.000000 
							}
						}
					}
				}
			}
		}
	}
	JOINT lThigh
	{
		OFFSET 5.308129 -1.633274 1.361059 
		CHANNELS 3 Xrotation Zrotation Yrotation
		JOINT lShin
		{
			OFFSET -2.041588 -20.007561 0.000000 
			CHANNELS 3 Xrotation Zrotation Yrotation
			JOINT lFoot
			{
				OFFSET 0.000000 -19.190928 -1.224953 
				CHANNELS 3 Xrotation Yrotation Zrotation
				End Site
				{
					OFFSET 0.000000 -2.449906 4.627600 
				}
			}
		}
	}
	JOINT rThigh
	{
		OFFSET -5.308129 -1.633274 1.361059 
		CHANNELS 3 Xrotation Zrotation Yrotation
		JOINT rShin
		{
			OFFSET 2.041588 -20.007561 0.000000 
			CHANNELS 3 Xrotation Zrotation Yrotation
			JOINT rFoot
			{
				OFFSET 0.000000 -19.190928 -1.224953 
				CHANNELS 3 Xrotation Yrotation Zrotation
				End Site
				{
					OFFSET 0.000000 -2.449906 4.627600 
				}
			}
		}
	}
}
MOTION
Frames: 12
Frame Time: 0.033333
-0.313875 45.653847 40.691780 -1.299606 -1.981912 0.113286 20.937416 -0.093372 0.162939 -20.839844 0.000000 0.000000 8.179997 2.819569 2.908802 -2.520832 -1.255077 0.218355 -4.754609 -0.109184 -0.002653 5.947119 0.171344 -1.024541 -2.656191 0.183412 0.864772 -4.610241 -0.949317 -0.145576 4.754609 0.109184 -0.002672 5.018991 0.202400 -20.386856 2.807538 -0.538431 25.179335 2.648271 3.929790 0.049178 8.196592 12.668887 4.596750 -5.456380 -3.550435 10.209950 1.177381 0.051145 -1.520986 7.254862 -7.216931 -7.345642 -3.560365 3.414751 -10.255850 -1.330188 -0.516009 6.280351 
-0.318895 45.653847 40.688271 -1.328976 -2.050230 0.057289 20.947176 -0.084250 0.166426 -20.839844 0.000000 0.000000 8.081200 2.920621 2.831872 -2.520832 -1.255077 0.218355 -4.754609 -0.109184 -0.002653 6.029663 0.062720 -0.812164 -2.656219 0.185170 0.981947 -4.551817 -0.939209 -0.136165 4.754609 0.109184 -0.002672 5.111057 0.343333 -20.320614 2.805096 -0.523422 24.749804 2.657940 3.890753 0.047770 8.276128 12.708600 5.191426 -5.461759 -3.578882 9.723980 1.165338 0.055571 -1.467394 7.235300 -7.158338 -7.150058 -3.511290 3.404777 -10.359436 -1.371830 -0.517797 6.259387 
-0.315400 45.653847 40.682762 -1.377844 -2.059952 -0.028621 20.966711 -0.093367 0.162925 -20.839844 0.000000 0.000000 7.964180 2.989273 2.827945 -2.520832 -1.255077 0.218355 -4.754609 -0.109184 -0.002653 6.100375 0.061898 -0.718135 -2.656296 0.189124 1.245620 -4.502997 -0.929450 -0.136513 4.754609 0.109184 -0.002672 5.191212 0.393385 -20.221018 2.804492 -0.522107 24.642391 2.531254 3.998106 0.051642 8.364285 12.709675 5.294662 -5.462869 -3.579310 9.694726 1.148481 0.064153 -1.537142 7.244935 -7.177602 -7.033835 -3.499105 3.402673 -10.378139 -1.351136 -0.526491 6.192690 
-0.311860 45.655846 40.665703 -1.387599 -2.040418 -0.077570 20.956944 -0.105962 0.168563 -20.839844 0.000000 0.000000 7.886170 3.097348 2.810893 -2.520832 -1.255077 0.218355 -4.754609 -0.109184 -0.002653 6.092801 0.140164 -0.757826 -2.666113 0.191228 1.401885 -4.454103 -1.017284 -0.133382 4.754609 0.109184 -0.002672 5.229650 0.365791 -20.233078 2.804766 -0.522705 24.691216 2.482725 4.115217 0.055865 8.346066 12.691513 5.092378 -5.457867 -3.571607 9.898756 1.137143 0.056074 -1.519357 7.222729 -7.184934 -6.985744 -3.504577 3.396484 -10.377970 -1.280707 -0.505329 6.063507 
-0.310869 45.657349 40.638603 -1.358259 -2.011154 -0.069541 20.947184 -0.127679 0.170714 -20.839844 0.000000 0.000000 7.885719 3.167257 2.771494 -2.520832 -1.255077 0.218355 -4.754609 -0.109184 -0.002653 5.966376 0.307609 -0.924727 -2.666095 0.190504 1.353063 -4.346735 -1.260921 -0.114925 4.754609 0.109184 -0.002672 5.210000 0.334265 -20.348114 2.803945 -0.520912 24.544743 2.590147 4.115217 0.055865 8.258124 12.671994 4.807762 -5.452084 -3.559560 10.181140 1.168975 0.039747 -1.473192 7.186810 -7.216507 -6.999600 -3.520171 3.393925 -10.379124 -1.238782 -0.512575 6.039105 
-0.302858 45.656845 40.620049 -1.358234 -1.981865 -0.089766 20.937424 -0.136804 0.167233 -20.839844 0.000000 0.000000 7.876272 3.107507 2.802143 -2.520832 -1.255077 0.218355 -4.754609 -0.109184 -0.002653 5.857940 0.484993 -1.217348 -2.666153 0.192820 1.509295 -4.219958 -1.494800 -0.096817 4.754609 0.109184 -0.002672 5.150219 0.340116 -20.431646 2.802802 -0.518398 24.339682 2.737093 4.027032 0.062433 8.236193 12.629348 4.741725 -5.452891 -3.550151 10.288007 1.197903 0.048231 -1.438737 7.176085 -7.264850 -7.015983 -3.558761 3.393722 -10.401336 -1.235279 -0.489050 6.153050 
-0.292802 45.658348 40.607002 -1.367998 -1.972095 -0.118958 20.947180 -0.140274 0.176349 -20.839844 0.000000 0.000000 7.837991 3.007432 2.865531 -2.520832 -1.255077 0.218355 -4.754609 -0.109184 -0.002653 5.883202 0.485002 -1.293565 -2.666230 0.195570 1.694822 -4.141837 -1.465522 -0.097861 4.754609 0.109184 -0.002672 5.102064 0.301769 -20.465630 2.803345 -0.519596 24.437330 2.805243 3.948957 0.059618 8.219698 12.604857 4.736968 -5.452149 -3.549870 10.307508 1.228390 0.043150 -1.346849 7.174491 -7.292242 -7.019753 -3.586018 3.392535 -10.403265 -1.218009 -0.502175 6.252515 
-0.288301 45.661362 40.596977 -1.377761 -1.962324 -0.118856 20.947199 -0.145920 0.163731 -20.839844 0.000000 0.000000 7.847874 2.967812 2.880027 -2.520832 -1.255077 0.218355 -4.754609 -0.109184 -0.002653 5.962315 0.366780 -1.140397 -2.666185 0.193978 1.587412 -4.131873 -1.309719 -0.113185 4.754609 0.109184 -0.002672 5.075624 0.236714 -20.480919 2.805041 -0.523302 24.740038 2.814829 3.880642 0.057155 8.212039 12.587258 4.703946 -5.460474 -3.553258 10.328024 1.283182 0.030041 -1.081027 7.152186 -7.299377 -6.971623 -3.581242 3.395559 -10.441887 -1.175746 -0.499173 6.200550 
-0.291322 45.661362 40.586433 -1.387533 -1.962316 -0.108756 20.947199 -0.145920 0.163731 -20.839844 0.000000 0.000000 7.895164 2.990898 2.796481 -2.520832 -1.255077 0.218355 -4.754609 -0.109184 -0.002653 6.020738 0.366279 -1.135565 -2.666124 0.191662 1.431179 -4.200218 -1.348757 -0.111793 4.754609 0.109184 -0.002672 5.073321 0.180403 -20.518103 2.806534 -0.526523 25.003689 2.755454 3.832198 0.045659 8.210327 12.575249 4.762124 -5.465518 -3.551303 10.249756 1.306686 0.018351 -0.887638 7.152754 -7.300033 -6.892497 -3.578081 3.393669 -10.539398 -1.162463 -0.501451 6.167979 
-0.291826 45.659859 40.574898 -1.377753 -1.952561 -0.089794 20.937452 -0.151571 0.151127 -20.839844 0.000000 0.000000 7.871487 3.019990 2.583943 -2.520832 -1.255077 0.218355 -4.754609 -0.109184 -0.002653 6.047720 0.365967 -1.103937 -2.656257 0.187220 1.118681 -4.268551 -1.426832 -0.109009 4.754609 0.109184 -0.002672 5.079095 0.158052 -20.645325 2.807538 -0.538431 25.179335 2.647962 3.802919 0.044603 8.190867 12.575373 4.771246 -5.465490 -3.551348 10.249759 1.273396 0.040954 -1.108260 7.137181 -7.313173 -6.913613 -3.591219 3.395698 -10.501167 -1.135691 -0.486715 6.183784 
-0.284791 45.660362 40.566887 -1.377737 -1.933035 -0.080498 20.927687 -0.151576 0.151141 -20.839844 0.000000 0.000000 7.789476 2.989528 2.400026 -2.520832 -1.255077 0.218355 -4.754609 -0.109184 -0.002653 6.012491 0.277829 -0.881773 -2.656170 0.181948 0.767127 -4.249056 -1.319479 -0.112837 4.754609 0.109184 -0.002672 5.070987 0.182652 -20.733725 2.807482 -0.538312 25.169569 2.579602 3.802920 0.044602 8.171359 12.556837 4.608944 -5.465403 -3.540407 10.395576 1.236259 0.039843 -1.358436 7.153532 -7.349829 -6.987957 -3.610346 3.395497 -10.385312 -1.127891 -0.503727 6.208494 
-0.277269 45.660866 40.562370 -1.397272 -1.923256 -0.099608 20.937452 -0.151571 0.151127 -20.839844 0.000000 0.000000 7.700558 2.942836 2.361423 -2.520832 -1.255077 0.218355 -4.754609 -0.109184 -0.002653 6.001288 0.140844 -0.716400 -2.656166 0.181655 0.747598 -4.210060 -1.163328 -0.118404 4.754609 0.109184 -0.002672 5.076536 0.229763 -20.696533 2.805758 -0.524854 24.866980 2.569907 3.832198 0.045659 8.189482 12.524923 4.516129 -5.459061 -3.542978 10.493397 1.231816 0.049024 -1.334283 7.162181 -7.367953 -7.010211 -3.621899 3.396557 -10.395836 -1.109137 -0.506064 6.186324 
